<?xml version="1.0" standalone="no"?>
<!DOCTYPE svg PUBLIC "-//W3C//DTD SVG 20010904//EN"
 "http://www.w3.org/TR/2001/REC-SVG-20010904/DTD/svg10.dtd">
<svg version="1.0" xmlns="http://www.w3.org/2000/svg"
 width="1106.000000pt" height="1106.000000pt" viewBox="0 0 1106.000000 1106.000000"
 preserveAspectRatio="xMidYMid meet">
<metadata>
Created by potrace 1.11, written by Peter Selinger 2001-2013
</metadata>
<g transform="translate(0.000000,1106.000000) scale(0.100000,-0.100000)"
fill="#000000" stroke="none">
<path d="M5756 10593 c-27 -54 -80 -169 -117 -255 -68 -157 -133 -293 -150
-314 -13 -16 -51 -6 -84 20 l-28 22 18 55 c10 30 37 92 61 139 53 104 77 171
66 182 -15 15 -422 -448 -422 -481 0 -16 41 -39 101 -57 30 -9 71 -25 92 -35
l37 -19 0 -170 0 -170 -33 -37 c-93 -106 -129 -173 -147 -271 -14 -80 2 -315
26 -364 l17 -37 -56 -65 c-32 -35 -57 -70 -57 -76 0 -7 11 -43 25 -81 49 -137
64 -299 34 -379 -5 -14 -32 -40 -59 -59 -27 -19 -52 -41 -54 -50 -8 -25 7 -76
67 -228 32 -78 57 -149 57 -158 0 -13 -25 -72 -115 -270 -40 -89 -42 -80 37
-162 40 -41 104 -100 141 -131 l68 -55 -3 -74 c-2 -40 0 -73 5 -73 10 0 9 -48
-1 -54 -5 -3 -18 8 -30 24 -20 26 -20 29 -4 33 13 3 6 15 -36 55 -40 40 -84
67 -190 118 -493 238 -460 219 -472 261 -5 21 -17 100 -25 176 -16 153 -23
185 -39 206 -6 7 -140 117 -297 242 l-287 229 -5 157 c-18 550 -43 973 -58
973 -5 0 -10 -12 -11 -27 -2 -36 -7 -77 -14 -133 -3 -25 -6 -57 -6 -72 0 -16
-3 -28 -7 -28 -3 0 -7 -12 -8 -27 0 -16 -3 -48 -6 -73 -14 -124 -20 -159 -29
-154 -5 3 -6 -13 -2 -38 4 -33 3 -40 -6 -28 -9 12 -10 9 -8 -15 1 -17 -1 -36
-6 -43 -4 -7 -6 -22 -5 -35 1 -12 -1 -29 -4 -37 -9 -22 -45 -319 -53 -430 l-6
-95 60 -57 c58 -56 152 -163 257 -295 l50 -63 5 -332 5 -333 33 -20 c135 -82
187 -123 263 -207 46 -51 125 -131 175 -178 51 -47 96 -98 102 -115 16 -43 19
-252 5 -266 -8 -8 -15 -5 -26 12 -16 24 -97 226 -133 329 -29 84 -6 78 -429
101 -115 6 -244 17 -285 25 -41 7 -138 21 -215 29 -76 9 -140 17 -140 18 0 1
-5 16 -11 32 -8 23 -16 29 -32 28 -12 -2 -22 1 -22 6 0 5 -45 13 -100 16 -55
4 -100 11 -100 16 0 4 -9 11 -20 14 -21 7 -196 121 -219 143 -7 7 -32 22 -55
34 -53 26 -224 148 -255 181 -22 24 -28 25 -90 20 -58 -5 -75 -1 -146 27 -44
18 -116 45 -160 60 l-80 27 -27 65 c-15 36 -43 143 -63 239 -51 250 -104 469
-114 469 -3 0 -7 -198 -9 -440 l-2 -439 55 -35 c30 -20 106 -61 168 -92 138
-69 160 -84 151 -107 -9 -24 -66 -57 -99 -57 -16 0 -83 18 -151 40 -122 39
-234 61 -234 44 0 -5 28 -28 63 -50 34 -23 118 -88 187 -144 135 -111 232
-180 251 -180 7 0 47 23 90 50 43 28 82 50 88 50 9 0 17 -38 23 -115 3 -25 8
-30 33 -33 55 -5 249 -43 290 -56 22 -8 67 -21 100 -31 33 -9 83 -28 111 -41
28 -13 69 -24 92 -24 23 0 52 -5 66 -11 22 -10 30 -8 64 20 22 17 49 31 61 31
11 0 87 -27 168 -60 81 -34 225 -90 318 -126 94 -35 190 -72 214 -82 24 -9 52
-28 62 -42 10 -14 32 -88 49 -165 37 -174 38 -176 62 -253 11 -35 18 -66 15
-69 -8 -7 -178 -23 -323 -30 l-121 -5 -59 79 c-32 44 -74 100 -91 126 -18 26
-39 47 -47 47 -16 0 -188 -63 -521 -192 -104 -41 -225 -85 -268 -98 l-77 -24
-38 36 c-20 19 -68 57 -107 83 -38 26 -87 61 -107 77 -81 63 -93 62 -348 -42
-96 -39 -185 -73 -197 -76 -13 -4 -21 -9 -19 -13 2 -3 -8 -7 -22 -8 -15 0 -33
-9 -42 -20 -8 -10 -19 -18 -25 -19 -26 -1 -65 -17 -65 -27 0 -6 -3 -8 -6 -4
-3 3 -23 -1 -45 -8 -22 -8 -42 -14 -44 -14 -45 0 -108 -31 -93 -47 3 -3 116 9
252 25 135 17 310 36 388 41 l143 11 48 -51 c29 -29 47 -57 45 -68 -2 -9 -41
-43 -88 -74 -106 -72 -150 -106 -150 -117 0 -5 33 0 73 10 39 11 119 24 177
30 58 6 197 28 310 50 113 22 245 42 295 44 251 13 325 14 325 5 0 -18 92
-165 123 -197 l31 -33 207 0 207 0 24 -32 c14 -18 85 -105 158 -193 121 -146
131 -162 127 -191 -8 -48 -125 -295 -155 -326 -14 -16 -33 -28 -41 -28 -9 0
-54 -23 -101 -50 -94 -56 -136 -68 -185 -53 -28 9 -254 140 -388 225 -23 15
-87 53 -142 85 -55 32 -121 77 -148 100 -26 24 -51 43 -55 43 -4 0 -82 14
-172 31 -106 21 -203 33 -272 34 -97 3 -223 23 -273 44 -48 20 -95 31 -121 29
-18 -1 -92 27 -194 74 -91 42 -187 86 -215 98 -27 13 -103 47 -169 77 l-118
53 -50 -50 c-30 -30 -58 -50 -71 -50 -12 1 -111 29 -220 64 -108 35 -199 60
-202 56 -7 -11 134 -143 195 -182 30 -20 88 -65 128 -102 41 -36 99 -78 129
-92 l55 -27 48 54 48 54 66 -23 c108 -37 217 -94 229 -119 8 -17 5 -38 -13
-90 -32 -95 -47 -116 -78 -108 -14 3 -75 31 -135 61 -60 30 -120 54 -133 54
l-23 0 24 -36 c35 -51 127 -144 137 -138 4 3 5 -2 2 -10 -8 -22 197 -232 218
-223 9 3 50 74 92 158 87 173 115 221 126 217 5 -2 45 -34 90 -71 45 -38 92
-70 104 -72 11 -2 59 -6 106 -10 47 -3 105 -8 130 -10 108 -10 170 -15 240
-20 41 -3 93 -8 115 -10 22 -3 76 -8 119 -11 l80 -6 105 -86 c167 -137 327
-279 448 -400 l112 -111 68 23 c115 39 238 64 475 96 283 38 324 46 342 72 8
11 48 55 89 97 40 42 100 105 132 141 31 36 62 65 68 65 6 0 12 -13 12 -28 2
-19 -1 -25 -9 -17 -22 22 -26 7 -26 -88 0 -106 -18 -189 -47 -214 -10 -8 -66
-40 -124 -71 -58 -31 -153 -81 -210 -113 -185 -101 -160 -95 -446 -96 -139 -1
-253 -4 -253 -8 0 -10 107 -84 250 -173 143 -89 138 -88 245 -23 39 24 81 49
95 57 16 8 90 16 215 21 214 8 299 24 330 61 11 13 60 75 109 138 154 196 184
228 222 235 18 3 45 3 59 0 23 -6 25 -10 25 -70 0 -49 -5 -69 -21 -90 -28 -36
-109 -203 -109 -225 0 -10 11 -49 25 -85 14 -37 41 -129 60 -204 19 -75 44
-171 56 -212 28 -102 21 -169 -29 -285 -42 -100 -115 -309 -187 -540 -67 -214
-88 -255 -189 -355 -47 -47 -102 -107 -122 -135 -21 -27 -53 -67 -72 -87 l-35
-37 -2 -153 c-3 -159 -17 -255 -55 -368 -48 -141 -135 -282 -248 -398 l-51
-52 -298 0 -298 0 -80 -76 c-44 -41 -100 -87 -124 -101 -41 -25 -47 -26 -90
-14 -76 20 -181 63 -181 75 0 15 -60 47 -85 46 -11 0 -44 0 -74 0 -47 0 -58
-4 -100 -38 -25 -22 -88 -69 -138 -105 -92 -67 -93 -67 -160 -67 -38 0 -113
-7 -168 -15 -55 -8 -125 -15 -156 -15 -46 0 -73 -8 -157 -50 -56 -27 -102 -52
-102 -55 0 -3 769 -5 1708 -5 l1708 0 34 79 c18 44 43 92 55 107 l22 28 46
-28 c26 -15 75 -50 108 -79 34 -29 78 -64 97 -79 l36 -28 1253 0 1254 0 -3 23
c-2 17 -9 21 -28 19 -90 -11 -193 -2 -316 27 -152 36 -220 38 -323 11 -41 -11
-89 -20 -106 -20 -17 0 -54 -6 -82 -13 -64 -17 -83 -8 -168 73 -68 64 -54 60
-355 115 -80 15 -172 32 -205 39 l-60 11 -3 86 c-3 84 -3 87 -40 125 -21 21
-81 72 -133 111 -266 204 -309 238 -368 290 -41 37 -72 74 -87 107 -23 49 -24
61 -24 266 1 203 2 217 23 257 12 24 96 130 187 235 217 254 227 274 195 395
-8 31 -15 93 -15 136 0 43 -10 134 -22 200 -15 88 -21 161 -21 262 0 183 17
385 34 412 12 20 6 36 -56 165 -38 79 -82 165 -97 191 -16 27 -31 68 -34 92
-6 36 -4 43 14 47 21 6 49 -7 252 -117 200 -109 236 -119 395 -111 100 5 143
3 185 -9 36 -10 102 -15 191 -15 l135 0 122 135 c98 110 122 142 122 166 0 16
-6 32 -14 35 -19 7 -122 -26 -236 -77 -81 -36 -106 -42 -165 -43 -67 -1 -77 2
-220 70 -82 39 -176 81 -208 94 -96 38 -110 59 -214 340 -51 137 -96 263 -99
278 -6 28 -4 29 53 45 63 18 111 21 129 9 5 -4 110 -141 233 -304 188 -253
226 -298 247 -298 34 0 58 14 124 70 30 26 111 85 180 131 69 46 159 108 200
139 139 102 247 133 395 113 l60 -8 36 -60 c31 -52 41 -61 75 -69 21 -4 50
-13 64 -19 14 -6 29 -10 33 -9 5 2 27 -3 50 -9 23 -7 56 -14 72 -16 17 -2 65
-12 107 -23 104 -27 117 -26 156 15 41 41 72 52 178 59 110 7 131 17 140 61
10 53 44 66 197 77 71 5 144 15 162 22 33 14 33 14 86 -41 72 -74 299 -263
315 -263 18 0 16 80 -3 87 -13 5 -78 91 -78 104 0 13 -181 242 -204 258 -40
28 -89 41 -173 48 -69 5 -94 14 -71 25 14 6 84 159 78 169 -15 24 -63 5 -154
-60 -53 -38 -119 -83 -148 -99 l-52 -31 -6 30 c-5 20 -16 34 -33 41 -15 6 -41
18 -59 26 -35 17 -53 11 -35 -11 7 -8 10 -16 7 -19 -3 -3 4 -13 15 -23 33 -30
25 -45 -24 -45 -25 0 -57 5 -73 12 -15 6 -32 12 -38 14 -28 8 -118 44 -128 52
-7 4 -58 25 -113 46 -120 44 -124 43 -218 -49 -31 -30 -59 -55 -61 -55 -10 0
-173 74 -265 120 -132 66 -192 75 -260 36 -25 -14 -128 -66 -230 -116 -164
-81 -187 -89 -207 -79 -37 20 -179 164 -216 219 -20 30 -38 47 -42 41 -3 -6
-3 -11 2 -11 4 0 2 -4 -6 -9 -14 -9 -40 11 -41 31 0 11 87 0 219 -28 90 -19
129 -23 145 -16 12 5 61 68 108 139 47 71 97 137 112 146 14 9 45 17 68 17 24
1 72 7 108 15 36 8 90 14 121 15 87 0 198 28 213 54 14 22 46 183 92 456 71
432 83 490 108 541 15 28 23 55 20 60 -3 5 -2 8 3 7 15 -5 104 75 99 88 -3 8
0 13 7 11 13 -2 63 90 53 100 -12 13 -85 -19 -224 -98 -158 -90 -178 -109
-207 -214 -24 -84 -91 -238 -168 -385 l-65 -125 -238 -5 -239 -5 -47 -65
c-148 -201 -134 -193 -261 -131 -57 27 -127 59 -157 71 -47 18 -249 116 -258
125 -2 2 16 33 40 69 l43 66 255 0 c146 0 271 5 293 11 61 17 102 62 173 192
37 67 109 195 161 283 l93 162 31 253 c18 152 35 257 42 261 21 14 81 8 122
-11 22 -10 69 -40 104 -65 36 -25 72 -46 81 -46 14 0 145 50 180 69 8 4 40 14
70 21 30 7 63 17 73 22 27 14 289 78 297 73 12 -7 20 22 20 70 l0 44 103 39
c57 22 112 42 122 44 13 2 40 -25 96 -96 42 -55 89 -109 104 -119 25 -19 27
-19 48 -1 157 130 237 253 237 364 0 83 -10 80 -184 -45 -42 -30 -85 -43 -113
-32 -11 3 -2 79 13 117 8 19 25 46 37 59 26 28 162 118 234 154 46 24 51 30
57 69 3 24 9 59 12 79 4 22 2 39 -5 44 -13 7 -444 -211 -506 -256 -22 -16 -52
-48 -67 -72 -42 -64 -46 -67 -86 -67 -20 -1 -55 -7 -77 -15 -22 -8 -59 -15
-81 -15 -25 0 -47 -6 -54 -15 -20 -24 -116 -20 -148 6 -26 20 -34 21 -197 14
-142 -6 -175 -10 -202 -26 -49 -31 -132 -52 -206 -53 -75 -1 -74 0 -79 -86
l-3 -45 -80 -7 c-44 -4 -105 -15 -135 -25 -53 -17 -55 -19 -63 -63 -68 -375
-82 -428 -126 -459 -14 -11 -129 -78 -254 -150 l-229 -131 -61 21 c-34 11 -72
27 -84 35 l-23 14 0 476 0 476 46 51 c90 100 108 162 109 364 0 83 3 154 7
158 3 4 43 10 87 14 44 4 85 11 90 16 5 6 21 46 36 90 15 44 42 116 60 160 18
44 52 132 75 195 23 63 50 139 61 168 23 64 24 79 4 62 -20 -17 -241 -329
-299 -422 -34 -56 -55 -79 -77 -87 -30 -10 -156 -28 -234 -33 l-40 -3 -5 -147
c-6 -170 6 -148 -155 -286 -55 -47 -126 -110 -157 -141 l-58 -55 0 -376 0
-376 -43 -42 c-53 -52 -79 -54 -167 -8 -127 66 -449 272 -457 293 -3 7 4 39
16 71 40 106 52 198 58 434 l6 226 -29 27 c-16 15 -64 57 -107 93 -91 78 -102
104 -95 225 4 72 10 88 63 192 51 97 57 117 48 137 -9 20 -6 28 22 58 37 39
42 62 32 165 -4 39 -10 99 -12 135 -15 195 -20 249 -35 414 -6 60 -13 113 -16
118 -3 4 -18 15 -35 23 -26 14 -29 21 -29 62 0 26 4 60 9 77 5 17 15 50 21 73
12 48 37 61 84 44 15 -6 34 -11 42 -11 29 0 50 86 74 300 6 52 25 185 41 295
38 245 44 305 32 305 -5 0 -31 -44 -57 -97z m1104 -2237 c0 -9 -30 -14 -35 -6
-4 6 3 10 14 10 12 0 21 -2 21 -4z m-83 -12 c-10 -10 -77 -12 -83 -2 -3 4 16
8 42 8 26 0 44 -3 41 -6z m-1655 -221 c-54 -47 -62 -52 -62 -45 0 9 62 61 74
62 5 0 0 -8 -12 -17z m2735 -579 c-3 -3 -12 -4 -19 -1 -8 3 -5 6 6 6 11 1 17
-2 13 -5z m-109 -131 c-10 -2 -26 -2 -35 0 -10 3 -2 5 17 5 19 0 27 -2 18 -5z
m-1028 -414 c-1 -193 1 -353 4 -356 3 -3 42 -18 87 -33 47 -16 77 -30 70 -35
-7 -4 -24 -3 -39 1 -15 4 -29 8 -32 8 -3 1 -11 5 -17 9 -7 5 -17 5 -23 2 -5
-3 -10 -1 -10 5 0 6 -4 9 -8 6 -5 -3 -18 2 -30 10 -21 14 -21 20 -17 212 2
108 4 270 4 360 1 89 3 162 6 162 3 0 5 -158 5 -351z m-1057 149 c18 -12 34
-25 37 -28 3 -3 50 -32 105 -64 55 -33 118 -72 141 -87 86 -58 159 -89 213
-89 53 0 65 -12 32 -30 -28 -14 -141 8 -141 29 0 3 -15 13 -32 20 -18 8 -39
20 -46 27 -7 7 -63 43 -125 80 -61 38 -118 74 -125 81 -8 7 -33 27 -58 44 -41
28 -52 39 -38 39 3 0 20 -10 37 -22z m2061 -212 c-13 -110 -27 -203 -32 -208
-5 -5 -8 5 -6 24 6 59 47 354 53 387 1 2 3 2 5 0 2 -2 -7 -94 -20 -203z
m-2734 153 c0 -5 -13 -3 -30 6 -16 9 -30 17 -30 20 0 2 14 -1 30 -6 17 -6 30
-15 30 -20z m130 -64 c0 -7 -119 50 -120 58 0 4 27 -6 60 -23 33 -17 60 -32
60 -35z m-1010 -351 c171 -7 250 -14 250 -23 0 -9 -77 -6 -280 9 -80 6 -166
13 -192 14 -27 1 -51 6 -55 11 -5 4 28 5 72 1 44 -3 136 -9 205 -12z m285 -34
c3 -6 -1 -7 -9 -4 -18 7 -21 14 -7 14 6 0 13 -4 16 -10z m272 -272 c-2 -18 -4
-4 -4 32 0 36 2 50 4 33 2 -18 2 -48 0 -65z m3628 63 c-6 -19 -39 -207 -80
-456 -38 -225 -77 -427 -88 -452 -12 -28 -31 -31 -22 -4 6 21 16 76 18 104 1
9 4 17 8 17 3 0 14 53 24 118 9 64 28 171 41 237 13 66 26 134 29 150 8 47 13
70 16 70 2 0 6 22 12 75 8 61 35 160 43 160 3 0 3 -8 -1 -19z m-3625 -201 c-9
-17 -14 -19 -26 -9 -17 14 -18 29 -3 29 5 0 7 -6 3 -12 -4 -8 -3 -10 2 -5 5 5
10 13 10 18 1 5 2 12 3 16 0 4 6 2 12 -4 8 -8 8 -17 -1 -33z m-523 -118 c3
-15 6 -36 8 -47 1 -11 3 -20 4 -20 3 0 10 -30 16 -65 2 -14 5 -25 6 -25 1 0 3
-9 5 -20 4 -23 12 -58 15 -65 1 -3 3 -9 4 -15 2 -5 4 -13 5 -17 1 -5 3 -11 5
-15 1 -5 7 -21 14 -37 14 -35 18 -61 10 -61 -3 0 -13 -6 -22 -14 -15 -11 -17
-11 -17 1 0 8 5 19 11 25 8 8 6 28 -9 75 -29 91 -82 321 -82 350 1 19 21 -19
27 -50z m2490 -204 c-8 -5 -6 -9 6 -14 9 -3 17 -10 17 -15 0 -5 -10 -4 -22 3
-13 7 -24 14 -26 15 -2 0 2 10 9 22 9 14 16 17 21 8 4 -6 2 -15 -5 -19z
m-3137 -8 c-8 -5 -19 -10 -25 -10 -5 0 -3 5 5 10 8 5 20 10 25 10 6 0 3 -5 -5
-10z m-70 -24 c0 -2 -7 -7 -16 -10 -8 -3 -12 -2 -9 4 6 10 25 14 25 6z m3406
-83 c-5 -5 -166 71 -166 79 0 4 38 -11 85 -34 46 -23 83 -43 81 -45z m44 -13
c8 -5 11 -10 5 -10 -5 0 -17 5 -25 10 -8 5 -10 10 -5 10 6 0 17 -5 25 -10z
m99 -46 c14 -12 -19 -1 -35 12 -18 14 -18 14 6 3 14 -6 27 -13 29 -15z m61
-24 c8 -5 11 -10 5 -10 -5 0 -17 5 -25 10 -8 5 -10 10 -5 10 6 0 17 -5 25 -10z
m50 -32 c0 -6 -6 -5 -15 2 -8 7 -15 14 -15 16 0 2 7 1 15 -2 8 -4 15 -11 15
-16z m-4656 -178 c-5 -5 -9 4 -10 23 -1 30 -1 30 9 9 6 -14 7 -26 1 -32z m963
-47 c4 -10 9 -20 13 -23 3 -3 19 -27 34 -55 16 -27 40 -65 53 -82 13 -18 18
-30 11 -27 -30 12 -151 204 -129 204 7 0 15 -8 18 -17z m4167 -75 c-43 -73
-159 -238 -170 -242 -10 -4 -13 -2 -8 7 9 15 57 80 64 87 3 3 18 25 34 50 37
58 76 110 82 110 3 0 2 -6 -2 -12z m-3424 -350 c35 -43 68 -78 72 -78 4 0 8
-5 8 -11 0 -6 11 -20 25 -31 14 -11 23 -24 20 -29 -4 -5 -1 -9 5 -9 9 0 8 -47
0 -57 -3 -4 -7 -20 -9 -33 0 -5 -5 -10 -11 -10 -5 0 -7 13 -4 30 4 16 4 40 0
54 -3 13 -71 102 -150 197 -79 96 -142 177 -139 181 4 7 44 -38 183 -204z
m2442 -200 c-7 -7 -12 -25 -12 -41 0 -34 -15 -28 -24 9 -7 28 5 44 34 44 11 0
11 -3 2 -12z m-2349 -103 c-9 -19 -18 -33 -20 -32 -5 6 21 67 29 67 4 0 0 -16
-9 -35z m3562 -83 c-29 -25 -145 -108 -255 -182 -69 -45 -150 -104 -180 -130
-52 -44 -100 -76 -100 -66 0 5 63 68 82 81 8 6 77 51 154 102 76 50 144 96
151 102 7 6 15 11 18 11 6 0 17 8 54 40 18 16 73 49 81 50 2 0 0 -4 -5 -8z
m-4713 -127 c10 -4 15 -11 12 -16 -3 -5 2 -9 12 -9 9 0 27 -11 40 -26 13 -14
24 -22 24 -19 0 5 108 -83 242 -198 180 -154 324 -297 299 -297 -7 0 -74 60
-149 134 -145 142 -293 274 -303 272 -4 0 -49 33 -100 74 -51 41 -99 80 -108
87 -13 10 -14 11 -1 9 8 -2 23 -6 32 -11z m2233 -385 c13 -13 6 -15 -54 -15
-73 0 -75 1 -39 19 31 16 75 14 93 -4z m-905 -40 c0 -5 -5 -10 -11 -10 -5 0
-7 5 -4 10 3 6 8 10 11 10 2 0 4 -4 4 -10z m1934 -27 c-10 -7 -25 -21 -31 -30
-11 -15 -13 -13 -13 14 0 32 19 45 49 35 11 -4 10 -8 -5 -19z m1374 0 c0 -21
-25 -54 -104 -139 -92 -99 -109 -112 -146 -118 -23 -4 -46 -2 -51 3 -6 6 0 8
17 7 27 -3 29 -2 132 113 27 30 68 75 92 100 23 25 42 49 42 53 0 5 4 8 9 8 5
0 9 -12 9 -27z m-3451 1 c-3 -3 -12 -4 -19 -1 -8 3 -5 6 6 6 11 1 17 -2 13 -5z
m-80 -10 c-3 -3 -12 -4 -19 -1 -8 3 -5 6 6 6 11 1 17 -2 13 -5z m2873 -205
l45 -2 -55 -7 c-82 -12 -188 -11 -195 0 -4 7 16 9 59 7 36 -2 66 -1 66 4 0 4
8 6 18 4 9 -2 37 -4 62 -6z m263 -36 c-18 -2 -48 -2 -65 0 -18 2 -4 4 32 4 36
0 50 -2 33 -4z m-3384 -106 c36 -24 103 -66 149 -93 45 -27 82 -52 82 -56 0
-5 -12 -8 -26 -8 -14 0 -22 4 -19 10 3 5 0 7 -8 4 -12 -4 -83 37 -259 149 -10
7 -20 17 -22 24 -11 26 38 12 103 -30z m917 18 c-32 -24 -116 -37 -296 -44
-96 -4 -177 -6 -179 -5 -14 9 98 24 214 28 77 3 154 7 170 10 52 8 89 17 94
22 2 2 7 4 10 4 3 0 -2 -7 -13 -15z m-646 -155 c0 -5 -5 -10 -11 -10 -5 0 -7
5 -4 10 3 6 8 10 11 10 2 0 4 -4 4 -10z m2276 -57 c-11 -11 -17 4 -9 23 7 18
8 18 11 1 2 -10 1 -21 -2 -24z m-9 -35 c-3 -8 -6 -5 -6 6 -1 11 2 17 5 13 3
-3 4 -12 1 -19z m-2 -158 c-4 -12 -9 -19 -12 -17 -3 3 -2 15 2 27 4 12 9 19
12 17 3 -3 2 -15 -2 -27z"/>
<path d="M1 7768 l1 -83 14 74 c13 73 12 91 -7 91 -5 0 -9 -37 -8 -82z"/>
</g>
</svg>
